<svg id="visual" viewBox="0 0 960 540" width="960" height="540" xmlns="http://www.w3.org/2000/svg" xmlns:xlink="http://www.w3.org/1999/xlink" version="1.1"><rect x="0" y="0" width="960" height="540" fill="#002d70"></rect><defs><linearGradient id="grad1_0" x1="43.8%" y1="0%" x2="100%" y2="100%"><stop offset="14.444444444444446%" stop-color="#004dff" stop-opacity="1"></stop><stop offset="85.55555555555554%" stop-color="#004dff" stop-opacity="1"></stop></linearGradient></defs><defs><linearGradient id="grad1_1" x1="43.8%" y1="0%" x2="100%" y2="100%"><stop offset="14.444444444444446%" stop-color="#004dff" stop-opacity="1"></stop><stop offset="85.55555555555554%" stop-color="#003fb7" stop-opacity="1"></stop></linearGradient></defs><defs><linearGradient id="grad1_2" x1="43.8%" y1="0%" x2="100%" y2="100%"><stop offset="14.444444444444446%" stop-color="#002d70" stop-opacity="1"></stop><stop offset="85.55555555555554%" stop-color="#003fb7" stop-opacity="1"></stop></linearGradient></defs><defs><linearGradient id="grad2_0" x1="0%" y1="0%" x2="56.3%" y2="100%"><stop offset="14.444444444444446%" stop-color="#004dff" stop-opacity="1"></stop><stop offset="85.55555555555554%" stop-color="#004dff" stop-opacity="1"></stop></linearGradient></defs><defs><linearGradient id="grad2_1" x1="0%" y1="0%" x2="56.3%" y2="100%"><stop offset="14.444444444444446%" stop-color="#003fb7" stop-opacity="1"></stop><stop offset="85.55555555555554%" stop-color="#004dff" stop-opacity="1"></stop></linearGradient></defs><defs><linearGradient id="grad2_2" x1="0%" y1="0%" x2="56.3%" y2="100%"><stop offset="14.444444444444446%" stop-color="#003fb7" stop-opacity="1"></stop><stop offset="85.55555555555554%" stop-color="#002d70" stop-opacity="1"></stop></linearGradient></defs><g transform="translate(960, 0)"><path d="M0 432C-51.5 437.5 -103.1 443.1 -133.5 410.9C-163.9 378.6 -173.3 308.7 -195.7 269.4C-218.2 230.1 -253.7 221.6 -274.3 199.3C-294.8 176.9 -300.5 140.9 -324.3 105.4C-348.1 69.9 -390.1 34.9 -432 0L0 0Z" fill="#003693"></path><path d="M0 288C-34.4 291.7 -68.7 295.4 -89 273.9C-109.3 252.4 -115.5 205.8 -130.5 179.6C-145.4 153.4 -169.1 147.7 -182.8 132.8C-196.6 118 -200.3 93.9 -216.2 70.2C-232.1 46.6 -260 23.3 -288 0L0 0Z" fill="#0047db"></path><path d="M0 144C-17.2 145.8 -34.4 147.7 -44.5 137C-54.6 126.2 -57.8 102.9 -65.2 89.8C-72.7 76.7 -84.6 73.9 -91.4 66.4C-98.3 59 -100.2 47 -108.1 35.1C-116 23.3 -130 11.6 -144 0L0 0Z" fill="#004dff"></path></g><g transform="translate(0, 540)"><path d="M0 -432C29.2 -382.1 58.4 -332.2 106.6 -328.1C154.8 -324 222 -365.7 253.9 -349.5C285.9 -333.3 282.5 -259.1 291.2 -211.6C300 -164.1 320.7 -143.3 346.2 -112.5C371.7 -81.7 401.8 -40.8 432 0L0 0Z" fill="#003693"></path><path d="M0 -288C19.5 -254.7 38.9 -221.5 71.1 -218.7C103.2 -216 148 -243.8 169.3 -233C190.6 -222.2 188.4 -172.7 194.2 -141.1C200 -109.4 213.8 -95.5 230.8 -75C247.8 -54.4 267.9 -27.2 288 0L0 0Z" fill="#0047db"></path><path d="M0 -144C9.7 -127.4 19.5 -110.7 35.5 -109.4C51.6 -108 74 -121.9 84.6 -116.5C95.3 -111.1 94.2 -86.4 97.1 -70.5C100 -54.7 106.9 -47.8 115.4 -37.5C123.9 -27.2 133.9 -13.6 144 0L0 0Z" fill="#004dff"></path></g></svg>